#tb 0: 1/25
0,          0,          0,        1,   518400, 0x75701511
0,          1,          1,        1,   518400, 0xa7eeaa16
0,          2,          2,        1,   518400, 0xe0f32e35
0,          3,          3,        1,   518400, 0x7a1dadd9
0,          4,          4,        1,   518400, 0x4a1672a6
